<svg xmlns="http://www.w3.org/2000/svg" viewBox="0 0 109 30" role="img" aria-label="Shopify">
  <path fill="#000" d="M19.5 5.2c0-.3-.2-.5-.5-.5-.3 0-1.2 0-1.7-.1-.5-.1-1-.4-1.4-.8-.4-.4-.7-.9-.8-1.4-.1-.5-.1-1.4-.1-1.7 0-.3-.2-.5-.5-.5h-3.5c-.3 0-.5.2-.5.5 0 .3 0 1.2-.1 1.7-.1.5-.4 1-.8 1.4-.4.4-.9.7-1.4.8-.5.1-1.4.1-1.7.1-.3 0-.5.2-.5.5v2.1c0 .3.2.5.5.5.8.1 2.4.5 3.4 1.1v11.8c0 1 .8 1.8 1.8 1.8h8.6c1 0 1.8-.8 1.8-1.8V10.9c1-.6 2.6-1 3.4-1.1.3 0 .5-.2.5-.5V5.2z"/>
  <path fill="#000" d="M38.4 19.8c-1.1 0-2-.9-2-2s.9-2 2-2 2 .9 2 2-.9 2-2 2zm0-6.8c-2.6 0-4.8 2.1-4.8 4.8s2.1 4.8 4.8 4.8 4.8-2.1 4.8-4.8-2.1-4.8-4.8-4.8z"/>
  <path fill="#000" d="M52.8 19.8c-1.1 0-2-.9-2-2s.9-2 2-2 2 .9 2 2-.9 2-2 2zm0-6.8c-2.6 0-4.8 2.1-4.8 4.8s2.1 4.8 4.8 4.8 4.8-2.1 4.8-4.8-2.1-4.8-4.8-4.8z"/>
  <path fill="#000" d="M66.2 13.2c-1.4 0-2.4.7-2.9 1.7V13h-2.4v12.2h2.4v-6.8c0-1.5.9-2.5 2.2-2.5 1.2 0 1.9.8 1.9 2.2v7.1h2.4v-7.5c0-2.4-1.4-3.7-3.6-3.7z"/>
  <path fill="#000" d="M78.5 19.8c-1.1 0-2-.9-2-2s.9-2 2-2 2 .9 2 2-.9 2-2 2zm0-6.8c-2.6 0-4.8 2.1-4.8 4.8s2.1 4.8 4.8 4.8 4.8-2.1 4.8-4.8-2.1-4.8-4.8-4.8z"/>
  <path fill="#000" d="M91.9 13.2c-2.2 0-3.6 1.3-3.6 3.7v7.5h2.4v-7.1c0-1.4.7-2.2 1.9-2.2 1.3 0 2.2 1 2.2 2.5v6.8h2.4V13h-2.4v1.9c-.5-1-1.5-1.7-2.9-1.7z"/>
</svg>
